<svg xmlns="http://www.w3.org/2000/svg" viewBox="0 0 320 240" width="320" height="240"><rect width="320" height="240" fill="#000"/><path d="M262 116 L262 76 Q262 56 242 56 L232 56 L232 70" fill="none" stroke="#C9CED6" stroke-width="10" stroke-linecap="round" stroke-linejoin="round"/><circle cx="84" cy="104" r="18" fill="#BFE4FF"/><circle cx="110" cy="96" r="15" fill="#BFE4FF"/><circle cx="220" cy="104" r="16" fill="#BFE4FF"/><circle cx="196" cy="98" r="13" fill="#BFE4FF"/><circle cx="60" cy="112" r="12" fill="#BFE4FF"/><ellipse cx="150" cy="96" rx="34" ry="24" fill="#FFD23F" /><path d="M178 94 l22 -14 l-6 22Z" fill="#FFD23F" /><circle cx="128" cy="66" r="21" fill="#FFD23F"/><path d="M110 66 l-22 4 l20 10Z" fill="#FF9A3C" /><circle cx="124" cy="60" r="4.5" fill="#1B1B24"/><path d="M146 96 q16 -12 30 2 q-14 12 -30 -2Z" fill="#F2B622" /><path d="M90 198 L80 224 M230 198 L240 224" fill="none" stroke="#FFD23F" stroke-width="9" stroke-linecap="round" stroke-linejoin="round"/><path d="M48 124 L272 124 C272 178 250 202 212 202 L108 202 C70 202 48 178 48 124Z" fill="#FFFFFF" /><rect x="32" y="110" width="256" height="20" rx="10" fill="#C9CED6" /><path d="M78 146 C80 168 90 180 106 184" fill="none" stroke="#C9CED6" stroke-width="5" stroke-linecap="round" stroke-linejoin="round"/><circle cx="288" cy="60" r="9" fill="#17395C" stroke="#BFE4FF" stroke-width="3.5"/><path d="M283.05 58.65 a4.5 4.5 0 0 1 3.6 -4.05" fill="none" stroke="#BFE4FF" stroke-width="3.5" stroke-linecap="round"/><circle cx="36" cy="60" r="12" fill="#17395C" stroke="#BFE4FF" stroke-width="3.5"/><path d="M29.4 58.2 a6 6 0 0 1 4.8 -5.4" fill="none" stroke="#BFE4FF" stroke-width="3.5" stroke-linecap="round"/><circle cx="300" cy="96" r="6" fill="#17395C" stroke="#BFE4FF" stroke-width="3.5"/><path d="M296.7 95.1 a3 3 0 0 1 2.4 -2.7" fill="none" stroke="#BFE4FF" stroke-width="3.5" stroke-linecap="round"/></svg>