<svg xmlns="http://www.w3.org/2000/svg" viewBox="0 0 320 240" width="320" height="240"><rect width="320" height="240" fill="#000"/><g transform="translate(-2.8 48.5) scale(0.78)"><path d="M92 150 L30 104 L40 150 L22 158 L46 176 L34 196 L96 190Z" fill="#2E9E4A"/><path d="M228 150 L290 104 L280 150 L298 158 L274 176 L286 196 L224 190Z" fill="#2E9E4A"/><ellipse cx="160" cy="200" rx="72" ry="58" fill="#5FD068"/><ellipse cx="160" cy="212" rx="44" ry="44" fill="#F3F0A8"/><path d="M130 190 q30 7 60 0" fill="none" stroke="#D9D277" stroke-width="4.5" stroke-linecap="round"/><path d="M130 206 q30 7 60 0" fill="none" stroke="#D9D277" stroke-width="4.5" stroke-linecap="round"/><path d="M130 222 q30 7 60 0" fill="none" stroke="#D9D277" stroke-width="4.5" stroke-linecap="round"/><path d="M112 56 L98 20 L134 42Z" fill="#FFD23F" stroke="#FFD23F" stroke-width="5" stroke-linejoin="round"/><path d="M208 56 L222 20 L186 42Z" fill="#FFD23F" stroke="#FFD23F" stroke-width="5" stroke-linejoin="round"/><path d="M146 38 L160 14 L174 38Z" fill="#FF9A3C" stroke="#FF9A3C" stroke-width="4" stroke-linejoin="round"/><ellipse cx="160" cy="92" rx="72" ry="56" fill="#5FD068"/><circle cx="128" cy="72" r="16" fill="#fff"/><circle cx="128" cy="75" r="8" fill="#1B1B24"/><circle cx="131" cy="72" r="2.8" fill="#fff"/><circle cx="192" cy="72" r="16" fill="#fff"/><circle cx="192" cy="75" r="8" fill="#1B1B24"/><circle cx="195" cy="72" r="2.8" fill="#fff"/><ellipse cx="160" cy="118" rx="54" ry="31" fill="#A6ECA0"/><ellipse cx="160" cy="105" rx="27" ry="12" fill="#FF8C8C"/><ellipse cx="149" cy="105" rx="5" ry="6" fill="#1B1B24"/><ellipse cx="171" cy="105" rx="5" ry="6" fill="#1B1B24"/><path d="M136 126 q24 16 48 0" fill="none" stroke="#2E9E4A" stroke-width="4.5" stroke-linecap="round"/><path d="M172 135 l4 10 l7 -9Z" fill="#fff"/></g><circle cx="226" cy="52" r="18" fill="#FFFFFF"/><circle cx="250" cy="42" r="22" fill="#FFFFFF"/><circle cx="276" cy="54" r="17" fill="#FFFFFF"/><rect x="222" y="52" width="58" height="18" rx="9" fill="#FFFFFF" /><path d="M250 128 l-26 -16 l10 22Z" fill="#2F7FD6" /><ellipse cx="266" cy="130" rx="22" ry="16" fill="#5AB0FF" /><path d="M262 126 q-4 -30 22 -30 q-2 18 -6 30Z" fill="#2F7FD6" /><path d="M286 126 l16 4 l-16 6Z" fill="#FF9A3C" /><circle cx="278" cy="126" r="3.5" fill="#1B1B24"/></svg>